<svg width="95" height="544" viewBox="0 0 95 544" fill="none" xmlns="http://www.w3.org/2000/svg">
  <g opacity="0.3" clip-path="url(#clip0_13179_11615)">
    <path d="M87.0925 46.2172C86.094 47.1151 86.2188 46.9712 85.4699 47.6282C83.6488 49.2259 82.0915 50.1121 80.2069 51.1331C74.4357 54.2629 68.3675 54.2835 62.4689 51.8104C54.9778 48.6703 50.2077 42.8212 47.9611 34.8067C45.9691 27.7031 46.6081 20.7867 49.7658 14.2398C53.4402 6.62049 59.3762 1.91295 67.681 0.445537C73.5745 -0.596024 78.6368 1.41269 83.4769 4.48351C84.6376 5.21978 85.8832 5.94067 86.7968 6.94631C89.7124 10.1608 91.8117 13.896 93.1097 18.1135C94.4477 22.4671 95.0542 26.8873 94.1157 31.3691C93.6015 33.8319 92.8027 36.2742 91.8117 38.5805C90.978 40.5251 89.6625 42.2464 88.6116 44.0961C88.2746 44.6887 88.2157 44.678 87.7165 45.4477L87.0925 46.2172ZM47.9361 26.4922C47.5767 32.6697 51.2161 37.4594 55.1726 40.6046C58.1955 43.0058 61.755 44.0423 65.3944 45.0941C70.8961 46.6847 75.9858 45.4969 81.0956 43.6292C85.2891 42.0977 88.5666 39.4271 91.1802 35.6944C94.7447 30.6046 94.258 22.5415 91.2825 18.0443C88.8662 14.3912 85.6186 11.8924 81.8194 10.2583C72.1392 6.09458 62.8808 6.95657 54.4187 13.5857C50.1553 16.9232 47.7065 21.3281 47.9361 26.4948V26.4922Z" fill="white" />
    <path d="M46.8657 390.497C47.3424 380.314 50.293 372.364 57.8514 366.854C65.707 361.125 75.3523 361.133 83.2403 366.415C89.2286 370.425 92.6683 376.179 94.0313 383.142C95.8285 392.313 94.0313 400.851 87.7808 407.852C80.6567 415.833 70.8691 417.818 61.8404 413.734C54.5665 410.443 50.1283 404.537 48.1338 396.689C47.5397 394.35 47.1578 391.954 46.8632 390.499L46.8657 390.497ZM70.4672 369.901C63.7275 370.178 57.2474 372.596 52.0677 378.126C46.5412 384.026 46.4039 393.727 51.8731 399.676C58.1809 406.535 65.9666 409.232 75.0453 407.687C80.095 406.828 84.7205 404.92 88.4648 401.169C91.7373 397.891 93.854 394.106 93.7791 389.206C93.6993 384.039 91.6399 379.909 87.988 376.507C83.1903 372.041 77.3867 370.317 70.4672 369.904V369.901Z" fill="white" />
    <path d="M47.5091 305.731C48.3828 305.731 48.9943 305.731 49.6084 305.731C63.954 305.731 78.2996 305.729 92.6427 305.727C94.2553 305.727 94.2927 305.727 94.2528 307.411C94.093 314.116 94.118 320.832 93.6662 327.514C93.2793 333.24 92.0586 338.838 88.9808 343.815C85.1317 350.044 79.2856 351.78 72.9977 350.208C67.7607 348.897 64.7079 344.985 62.7783 340.039C59.8304 332.494 59.683 324.554 59.6805 316.591C59.6805 312.507 59.9151 313.333 56.4206 313.277C53.802 313.236 51.181 313.277 48.5625 313.205C48.2055 313.194 47.5665 312.761 47.5565 312.501C47.4766 310.296 47.5091 308.086 47.5091 305.731ZM60.4294 319.389C60.3944 319.395 60.3595 319.4 60.3246 319.405C60.6041 322.291 60.6016 325.244 61.2206 328.054C62.5511 334.087 64.8227 339.6 71.1006 341.971C76.3526 343.954 81.4099 343.582 86.0353 340.182C89.6498 337.525 91.2573 333.541 92.3507 329.305C93.6237 324.361 93.2693 319.295 93.3317 314.261C93.3417 313.369 92.9073 313.215 92.1635 313.22C88.7961 313.248 85.4263 313.238 82.0589 313.238C75.2792 313.238 68.5021 313.251 61.7249 313.228C60.8038 313.225 60.3545 313.435 60.4119 314.518C60.4992 316.136 60.4344 317.763 60.4344 319.387L60.4294 319.389Z" fill="white" />
    <path d="M94.1336 196.931C94.1336 199.696 94.1511 202.164 94.1087 204.63C94.1037 204.875 93.7867 205.222 93.5321 205.342C85.4644 209.178 77.3817 212.977 69.314 216.816C63.2832 219.683 57.2723 222.6 51.249 225.487C50.3829 225.902 49.4917 226.256 48.6205 226.658C47.9117 226.984 47.4599 226.838 47.4673 225.977C47.4849 223.841 47.4399 221.697 47.6496 219.579C47.702 219.05 48.5407 218.419 49.1472 218.17C51.4113 217.244 53.5082 216.125 55.243 214.298C59.0097 210.327 59.0596 205.969 56.2415 201.643C54.7463 199.349 52.7468 197.406 51.2191 195.133C49.9835 193.296 48.7978 191.305 48.1513 189.2C47.1178 185.825 48.1064 182.759 50.7548 180.44C53.4956 178.039 56.6009 178.336 59.6887 179.568C64.102 181.325 67.5193 184.668 71.2785 187.459C75.6169 190.682 79.9702 193.885 84.2587 197.177C86.4129 198.829 88.642 198.994 91.0658 198.044C91.9844 197.685 92.9205 197.371 94.1361 196.933L94.1336 196.931ZM57.5644 214.055C67.4519 209.399 77.0647 204.873 86.9197 200.232C86.2931 199.796 85.9611 199.555 85.6216 199.329C83.0006 197.603 80.2948 195.997 77.7686 194.132C73.4153 190.919 69.1717 187.549 64.8833 184.245C63.0061 182.798 60.9692 182.094 58.5778 182.513C53.4582 183.408 50.7997 187.805 52.7368 192.718C53.7577 195.304 55.218 197.723 56.6209 200.132C58.4281 203.237 59.6612 206.387 58.5055 210.076C58.121 211.302 57.9064 212.585 57.5644 214.053V214.055Z" fill="white" />
    <path d="M86.7956 166.917C86.898 166.743 86.9604 166.517 87.1076 166.402C90.2678 163.923 91.2214 160.191 92.3122 156.575C93.4255 152.89 93.1734 149.046 93.2108 145.249C93.2408 142.17 93.1934 139.092 93.2483 136.013C93.2633 135.106 92.9388 134.785 92.1025 134.785C85.6549 134.78 79.2047 134.761 72.757 134.746C71.5913 134.744 71.2768 135.228 71.3118 136.491C71.434 141.019 71.3467 145.552 71.4016 150.085C71.4141 151.144 71.5688 152.222 71.8235 153.251C72.2902 155.142 73.3162 156.66 75.0186 157.635C75.3955 157.851 75.74 158.125 76.0994 158.374C76.072 158.497 76.0445 158.62 76.017 158.744H65.6629C66.0422 158.348 66.272 158.012 66.5815 157.799C69.1076 156.068 70.2883 153.618 70.3058 150.54C70.3332 145.624 70.3657 140.711 70.3208 135.795C70.3183 135.457 69.6992 134.834 69.3647 134.831C62.7922 134.803 56.2197 134.85 49.6473 134.877C48.9284 134.88 48.4566 135.075 48.4816 135.971C48.6763 142.456 47.9599 148.962 49.0382 155.427C49.5899 158.733 50.7531 161.758 52.6552 164.464C53.2892 165.365 54.1454 166.099 54.9018 166.909C54.8494 167.012 54.7994 167.112 54.747 167.214C54.4125 167.214 54.063 167.281 53.7461 167.204C52.131 166.809 50.5409 166.27 48.9084 165.993C47.7177 165.79 47.4581 165.198 47.4682 164.087C47.5056 159.3 47.4781 154.513 47.4806 149.724C47.4806 142.671 47.508 135.616 47.4731 128.564C47.4682 127.453 47.8001 127.084 48.901 127.086C63.4612 127.132 78.024 127.153 92.5843 127.132C93.8249 127.132 94.2193 127.474 94.2118 128.787C94.1644 140.287 94.1893 151.788 94.1868 163.289C94.1868 165.157 94.2418 165.576 92.3122 165.904C90.5 166.214 88.7327 166.811 86.9454 167.284C86.8955 167.164 86.848 167.04 86.7981 166.919L86.7956 166.917Z" fill="white" />
    <path d="M47.5779 239.526C47.4805 238.474 47.6777 237.913 48.7361 237.918C63.4162 237.995 78.0988 238.067 92.7789 238.094C93.8772 238.094 94.2791 238.364 94.1144 239.534C93.9921 240.414 94.0095 241.333 94.0969 242.223C94.2716 243.998 93.4953 245.113 92.1399 246.166C84.0472 252.443 76.0069 258.795 67.9642 265.142C65.6328 266.983 63.3538 268.895 60.7852 270.989C61.3943 271.06 61.7213 271.13 62.0508 271.132C72.2402 271.166 82.4297 271.189 92.6191 271.217C92.9511 271.217 93.3256 271.143 93.6002 271.276C93.8423 271.396 94.1044 271.756 94.1069 272.015C94.1094 272.21 93.7374 272.553 93.5028 272.584C92.7215 272.684 91.9277 272.702 91.1364 272.702C77.2026 272.717 63.269 272.725 49.3352 272.725C48.6962 272.725 48.0571 272.64 47.0711 272.571C47.5828 271.946 47.81 271.548 48.1395 271.282C50.6507 269.25 53.1818 267.243 55.7055 265.227C59.5396 262.161 63.3663 259.086 67.2079 256.027C73.2862 251.189 79.3694 246.361 85.4551 241.532C86.0816 241.034 86.7331 240.573 87.3023 239.836C74.03 239.226 60.8177 239.632 47.5753 239.521L47.5779 239.526Z" fill="white" />
    <path d="M60.8199 483.199C61.5163 483.276 61.8708 483.347 62.2252 483.347C71.6658 483.365 81.1064 483.373 90.547 483.396C91.5005 483.396 92.4591 483.455 93.4076 483.563C93.6423 483.591 93.847 483.92 94.0641 484.111C93.8545 484.312 93.6598 484.669 93.4351 484.689C92.484 484.779 91.5255 484.794 90.5695 484.792C77.7191 484.742 64.8687 484.684 52.0183 484.63C50.543 484.625 49.0678 484.63 47.5925 484.63L47.4252 484.15C47.7972 483.752 48.1242 483.299 48.5435 482.965C54.9388 477.919 61.349 472.893 67.7493 467.852C72.9264 463.773 78.096 459.689 83.2581 455.589C84.6061 454.52 85.9116 453.396 87.2271 452.287C87.3693 452.167 87.4542 451.977 87.7088 451.616C86.925 451.552 86.3309 451.462 85.7343 451.462C73.5479 451.454 61.359 451.464 49.1726 451.434C48.6185 451.434 48.0643 451.082 47.5127 450.894C48.0693 450.636 48.6235 450.151 49.1801 450.148C63.8202 450.107 78.463 450.122 93.1031 450.102C93.9718 450.102 94.3163 450.392 94.2663 451.282C94.2164 452.133 94.149 453.007 94.2613 453.842C94.5284 455.828 93.6797 457.036 92.1496 458.207C86.2436 462.712 80.4375 467.354 74.6063 471.962C70.2579 475.398 65.9271 478.853 61.5937 482.309C61.3815 482.477 61.2292 482.722 60.8199 483.199Z" fill="white" />
    <path d="M60.6107 113.303C60.1289 113.146 59.5872 113.087 59.1728 112.818C55.6632 110.53 52.5904 107.764 50.3588 104.106C46.9689 98.5514 46.4198 92.5663 47.603 86.2323C48.7762 79.9495 51.6044 74.6571 56.3496 70.5781C61.3644 66.2631 67.2206 64.3569 73.7606 65.3318C75.9223 65.655 78.1689 66.1604 80.1059 67.1455C87.2625 70.7833 91.8779 76.712 93.8075 84.6648C95.787 92.8254 94.4715 100.522 90.0507 107.61C88.1062 110.727 85.3729 113.023 82.33 114.937C82.023 115.129 81.319 115.16 81.1219 114.95C79.694 113.415 78.3486 111.802 76.9781 110.214C77.7295 109.916 78.7953 109.501 79.8588 109.077C84.5541 107.202 88.6803 104.683 91.4261 100.042C94.2743 95.2292 94.6188 87.4739 90.4776 82.1097C86.943 77.5354 82.2875 74.9778 76.9407 73.554C68.9054 71.4143 61.5518 73.4128 54.9543 78.1435C51.3373 80.7371 49.4377 84.7392 48.7962 89.3107C47.4332 99.0466 51.4771 106.071 59.1005 111.356C59.7194 111.784 60.2761 112.309 60.8627 112.789C60.7804 112.961 60.6956 113.131 60.6131 113.303H60.6107Z" fill="white" />
    <path d="M88.2602 543.998C88.8518 543.19 89.2288 542.713 89.5632 542.21C92.1718 538.298 92.9855 533.837 93.305 529.23C93.3874 528.036 93.3325 526.834 93.4423 525.643C93.5547 524.407 93.1004 523.97 91.8947 524.009C88.6996 524.111 85.5044 524.15 82.3068 524.158C74.4163 524.175 66.5259 524.163 58.6355 524.158C55.3504 524.158 52.0655 524.121 48.7805 524.158C47.8543 524.168 47.5499 523.86 47.5798 522.9C47.6447 520.812 47.5997 518.721 47.5997 516.463C48.0541 516.44 48.4884 516.397 48.9227 516.397C63.2284 516.407 77.5341 516.41 91.8398 516.467C93.028 516.471 93.2526 516.079 93.2951 514.929C93.4398 510.995 92.8133 507.179 91.8223 503.418C91.2132 501.113 90.3196 498.913 88.4624 497.3C88.3251 497.18 88.2527 496.982 88.0331 496.633C88.4974 496.677 88.7695 496.661 89.0166 496.731C89.8129 496.957 90.5992 497.221 91.393 497.459C92.2916 497.729 93.5522 497.713 93.9965 498.326C94.4633 498.971 94.1712 500.212 94.1687 501.192C94.1612 514.265 94.1488 527.341 94.1363 540.415C94.1363 540.627 94.1063 540.843 94.1263 541.056C94.2436 542.256 93.9441 542.941 92.5487 542.952C91.6301 542.96 90.7165 543.421 89.7979 543.665C89.4185 543.768 89.0291 543.834 88.2602 543.998Z" fill="white" />
    <path d="M70.9486 435.012C63.5923 435.012 56.2361 434.991 48.8797 435.031C47.8588 435.037 47.4794 434.768 47.5393 433.673C47.6267 432.054 47.6168 430.424 47.5418 428.805C47.4894 427.676 47.8838 427.338 48.9721 427.344C57.6589 427.385 66.3457 427.371 75.0298 427.379C80.9733 427.385 86.9168 427.42 92.8602 427.375C93.966 427.367 94.323 427.713 94.268 428.828C94.1857 430.535 94.2081 432.245 94.2356 433.952C94.2481 434.78 93.9685 435.035 93.1398 435.031C85.7411 434.998 78.3448 435.012 70.9461 435.012H70.9486Z" fill="white" />
    <path d="M11.4493 354.482C9.72703 354.482 8.00463 354.474 6.28475 354.484C4.70472 354.495 3.12458 354.557 1.54698 354.528C1.20748 354.523 0.873039 354.241 0.536068 354.084C0.860486 353.892 1.175 353.55 1.50702 353.533C3.12459 353.438 4.74458 353.435 6.36458 353.382C6.78899 353.369 7.21087 353.289 7.63274 353.238C7.65521 353.117 7.6801 352.996 7.70256 352.879C6.42207 352.242 5.14146 351.609 3.86097 350.972C2.88992 350.49 1.90896 350.025 0.955417 349.508C0.733192 349.387 0.603462 349.082 0.431232 348.861C0.640904 348.692 0.828113 348.471 1.06267 348.358C3.19947 347.329 5.34618 346.324 7.4854 345.3C7.6976 345.2 7.88227 345.039 8.05957 344.623C7.65763 344.582 7.25326 344.513 6.85143 344.507C5.10655 344.48 3.36168 344.497 1.61692 344.436C1.19746 344.42 0.78561 344.171 0.3688 344.03C0.39622 343.895 0.423745 343.76 0.448632 343.625H11.3196C11.3845 343.753 11.4519 343.879 11.5167 344.007C11.0599 344.416 10.6605 344.946 10.1364 345.211C8.05208 346.262 5.92277 347.224 3.82099 348.242C3.43414 348.43 3.10212 348.732 2.44316 349.195C5.6957 350.783 8.66865 352.238 11.6416 353.689C11.5766 353.953 11.5092 354.218 11.4444 354.48L11.4493 354.482Z" fill="white" />
    <path d="M6.05993 326.096C5.67561 325.998 5.21123 326.005 4.91676 325.78C3.62867 324.787 2.44046 324.861 1.23981 325.924C1.07011 326.075 0.750542 326.047 0.373706 326.126C0.448589 325.795 0.433607 325.565 0.528422 325.498C1.89635 324.528 1.72908 323.553 0.855378 322.227C-0.16798 320.672 0.208855 318.933 1.05261 317.373C1.72159 316.136 3.57373 315.667 4.79189 316.373C5.32862 316.682 5.8104 317.106 6.27214 317.529C6.93617 318.137 7.46784 318.494 8.41885 317.83C9.46732 317.099 11.4767 318.523 11.7289 320.018C11.926 321.183 10.8402 322.871 9.23518 323.368C9.52964 322.706 9.62953 322.208 9.91661 321.896C10.5831 321.172 10.6729 320.408 10.2936 319.551C9.93411 318.743 9.2626 318.389 8.59108 318.974C7.01854 320.346 5.53333 321.83 4.05803 323.315C3.95573 323.417 4.13546 324.008 4.33764 324.199C4.92668 324.761 5.59567 325.236 6.23217 325.747C6.17226 325.862 6.11488 325.98 6.05498 326.096H6.05993ZM1.24488 320.236C1.42955 320.631 1.74659 321.45 2.19093 322.189C2.33321 322.424 2.99217 322.65 3.09701 322.545C4.12048 321.516 5.09395 320.431 6.02998 319.318C6.15233 319.175 6.04496 318.733 5.92768 318.49C5.52584 317.668 4.00309 317.052 3.10703 317.301C2.14843 317.568 1.22483 318.779 1.24488 320.234V320.236Z" fill="white" />
    <path d="M0.60306 116.899C0.997515 116.87 1.39439 116.814 1.78874 116.816C4.44718 116.835 7.10815 116.851 9.76659 116.897C11.3941 116.924 11.6412 117.169 11.5513 118.798C11.489 119.942 11.3292 121.086 11.147 122.217C10.9298 123.577 9.91636 124.067 8.75568 124.275C7.66481 124.47 5.88503 123.633 5.46811 122.72C5.06628 121.842 4.6269 121.694 3.84063 122.284C3.04181 122.886 2.17317 123.4 1.29704 123.882C1.0823 124 0.722869 123.843 0.430827 123.816C0.535662 123.525 0.555597 123.102 0.760312 122.963C1.90106 122.191 3.05678 121.427 4.26746 120.781C5.22353 120.27 5.10868 119.429 4.92643 118.692C4.85661 118.412 4.09281 118.233 3.62347 118.161C2.92948 118.056 2.20312 118.156 1.5142 118.033C1.11975 117.961 0.770333 117.623 0.400875 117.405C0.468269 117.235 0.533128 117.065 0.600522 116.897L0.60306 116.899ZM8.16157 118.271C5.77513 118.284 6.06971 117.997 6.04229 120.48C6.02478 122.02 7.02831 123.143 8.43115 123.212C9.52201 123.268 10.1211 122.51 10.3207 120.824C10.5238 119.117 9.80404 118.266 8.16157 118.269V118.271Z" fill="white" />
    <path d="M2.99092 409.379C3.86705 409.433 4.46116 409.489 5.05526 409.5C6.88251 409.533 8.71218 409.52 10.5394 409.595C10.9338 409.61 11.3158 409.913 11.7026 410.082C11.6702 410.228 11.6352 410.377 11.6028 410.523C11.091 410.583 10.5769 410.691 10.0651 410.697C7.23941 410.732 4.4138 410.757 1.59051 410.744C1.21114 410.744 0.8342 410.516 0.454831 410.392C0.669458 410.016 0.799292 409.51 1.11633 409.282C3.24806 407.735 5.41976 406.25 7.57638 404.739C8.04077 404.413 8.49249 404.071 8.94938 403.738C8.91943 403.595 8.88694 403.454 8.85699 403.309H0.577066C0.547113 403.145 0.514736 402.979 0.484783 402.815C0.759316 402.668 1.03142 402.401 1.30596 402.399C4.6259 402.375 7.94837 402.391 11.2683 402.404C11.3332 402.404 11.3982 402.491 11.6677 402.684C9.24142 405.416 5.8565 406.786 2.99092 409.379Z" fill="white" />
    <path d="M11.6019 188.061C11.502 189.407 11.4222 190.529 11.3349 191.65C10.9704 196.326 6.43225 198.592 2.54827 196.05C1.36754 195.278 0.750981 194.138 0.611126 192.771C0.466427 191.332 0.451452 189.878 0.45894 188.427C0.45894 188.179 0.850856 187.709 1.05546 187.715C4.57516 187.802 8.09476 187.945 11.6143 188.082C11.6419 188.082 11.6643 188.143 11.5994 188.058L11.6019 188.061ZM6.07535 188.774C6.07535 188.787 6.07535 188.8 6.07535 188.813C5.28655 188.813 4.50028 188.813 3.71148 188.813C1.09291 188.813 1.18034 188.807 1.37503 191.547C1.60464 194.757 3.42936 195.709 5.92812 195.796C6.72936 195.824 7.53556 195.423 8.34936 195.296C9.66983 195.088 10.1043 194.152 10.259 192.969C10.3912 191.956 10.4137 190.924 10.6259 189.932C10.8231 189.01 10.4612 188.767 9.68237 188.772C8.47919 188.78 7.27854 188.772 6.07535 188.772V188.774Z" fill="white" />
    <path d="M11.7026 170.255C11.3058 170.384 10.9138 170.612 10.5144 170.621C7.47905 170.683 4.44365 170.719 1.40838 170.708C1.04387 170.708 0.679486 170.378 0.314984 170.199C0.674421 170.011 1.02395 169.688 1.39341 169.66C2.42678 169.583 3.47271 169.601 4.51105 169.631C5.1851 169.652 5.51459 169.403 5.5245 168.682C5.54454 167.23 5.64189 165.775 5.59949 164.326C5.592 164.073 5.06771 163.644 4.76069 163.623C3.64241 163.546 2.51411 163.654 1.39582 163.585C1.03386 163.562 0.689398 163.21 0.33745 163.008C0.664511 162.792 0.986501 162.394 1.31598 162.387C4.43121 162.315 7.54644 162.294 10.6617 162.309C10.9487 162.309 11.2358 162.653 11.5229 162.838C11.2608 163.046 11.0137 163.403 10.7365 163.431C9.7057 163.536 8.6623 163.538 7.62385 163.567C6.86996 163.587 6.49301 163.905 6.52308 164.744C6.56547 165.896 6.55546 167.053 6.5081 168.205C6.4656 169.238 6.83252 169.701 7.8909 169.616C8.79951 169.541 9.72067 169.595 10.6342 169.622C10.9787 169.631 11.3207 169.724 11.6627 169.78C11.6751 169.936 11.6901 170.096 11.7026 170.253V170.255Z" fill="white" />
    <path d="M11.5171 263.31C10.3938 263.353 9.26803 263.484 8.14975 263.42C6.95911 263.353 6.48978 263.794 6.56466 265.02C6.63459 266.168 6.60716 267.324 6.56466 268.476C6.53228 269.343 6.96407 269.592 7.70794 269.602C8.66148 269.618 9.61756 269.635 10.5686 269.723C10.913 269.754 11.2425 269.988 11.5796 270.125C11.5696 270.246 11.5595 270.366 11.5471 270.488C11.2176 270.582 10.8881 270.754 10.5561 270.76C7.44332 270.808 4.33063 270.841 1.2154 270.833C0.975777 270.833 0.738571 270.505 0.498946 270.328C0.726127 270.121 0.94076 269.754 1.18545 269.731C2.17643 269.639 3.1749 269.606 4.17084 269.635C5.15434 269.666 5.64107 269.338 5.56619 268.238C5.48635 267.088 5.46388 265.929 5.52632 264.782C5.58369 263.731 5.12438 263.438 4.19584 263.471C3.15992 263.509 2.11895 263.484 1.08303 263.428C0.858386 263.415 0.648717 263.154 0.431557 263.004C0.626252 262.828 0.820942 262.494 1.01564 262.496C4.37555 262.519 7.73789 262.581 11.0978 262.648C11.235 262.65 11.3698 262.797 11.5071 262.874C11.5097 263.019 11.5121 263.163 11.5146 263.31H11.5171Z" fill="white" />
    <path d="M0.588833 378.584C1.00818 378.513 1.42752 378.382 1.84686 378.377C4.75495 378.336 7.66546 378.323 10.5735 378.297C11.2825 378.289 11.5246 378.661 11.4747 379.349C11.3823 380.627 11.3499 381.912 11.2226 383.184C11.1028 384.396 10.0892 385.316 8.76381 385.526C7.69045 385.696 5.96309 385.019 5.63107 384.147C5.18177 382.969 4.57016 383.041 3.70901 383.633C3.22976 383.965 2.67057 384.17 2.16137 384.457C1.66219 384.737 1.17787 385.047 0.686182 385.345C0.588835 385.265 0.488953 385.188 0.391605 385.109C0.596321 384.799 0.736061 384.39 1.01566 384.197C2.05399 383.495 3.10742 382.8 4.2158 382.223C5.17925 381.72 5.1918 380.907 5.05943 380.047C4.9122 379.09 4.12835 379.246 3.47687 379.236C2.85282 379.229 2.22623 379.275 1.6047 379.236C1.25276 379.213 0.908293 379.065 0.561301 378.972C0.568789 378.844 0.576283 378.713 0.586304 378.584H0.588833ZM5.94811 381.206C5.97058 381.63 5.96056 382.059 6.01804 382.476C6.19027 383.693 7.25614 384.606 8.43179 384.573C9.47277 384.544 10.2241 383.753 10.4088 382.499C10.8681 379.362 10.8331 379.327 7.6855 379.346C5.92818 379.36 5.87323 379.416 5.94811 381.209V381.206Z" fill="white" />
    <path d="M0.423206 228.066C0.712825 228.125 1.01731 228.148 1.29196 228.25C3.9004 229.226 6.504 230.213 9.1075 231.196C9.22478 231.239 9.37211 231.229 9.46451 231.301C10.1235 231.816 10.77 232.345 11.4189 232.869C10.8074 233.238 10.2307 233.699 9.57925 233.963C7.03071 234.99 4.4596 235.954 1.89597 236.942C1.70128 237.017 1.50405 237.145 1.30936 237.145C1.01236 237.143 0.717784 237.048 0.420786 236.991C0.553042 236.716 0.650386 236.416 0.830104 236.178C0.947493 236.022 1.17214 235.896 1.3643 235.867C2.87946 235.636 3.08913 234.577 2.99179 233.274C2.95434 232.765 2.99179 232.248 3.04927 231.74C3.15906 230.768 2.79468 230.141 1.93595 229.695C1.31685 229.375 0.78771 228.877 0.218602 228.456C0.285996 228.327 0.353392 228.2 0.420786 228.069L0.423206 228.066ZM9.32719 232.981C9.32212 232.794 9.31464 232.607 9.30968 232.42C7.78956 231.924 6.27682 231.401 4.74162 230.963C4.54197 230.905 4.0103 231.268 3.99532 231.465C3.91791 232.489 3.96031 233.523 3.96031 234.849C5.9698 234.151 7.64971 233.566 9.32961 232.981H9.32719Z" fill="white" />
    <path d="M0.491803 131.289C4.28846 132.354 7.98535 133.697 11.5674 135.476C10.8235 136.91 1.83727 140.514 0.00506465 139.97C0.748935 139.551 1.20319 139.169 1.72241 139.028C2.69588 138.764 3.12029 138.205 3.03043 137.184C2.98803 136.717 2.97548 136.242 3.01292 135.775C3.14529 134.083 2.82329 132.715 0.916101 132.315C0.671521 132.264 0.479361 131.94 0.264624 131.741C0.342039 131.589 0.416925 131.44 0.49434 131.289H0.491803ZM9.29833 136.115C9.28588 135.93 9.27091 135.748 9.25846 135.563C7.65333 135.048 6.05084 134.145 4.44582 134.141C3.21511 134.141 4.1213 135.745 3.93409 136.605C3.82419 137.112 3.88916 137.884 4.73533 137.635C6.27296 137.187 7.77821 136.628 9.29833 136.111V136.115Z" fill="white" />
    <path d="M8.9289 154.215C9.51805 153.228 10.1995 152.402 10.5365 151.445C11.0781 149.905 10.1146 148.653 8.58444 148.661C7.72571 148.666 7.16662 149.041 6.95938 149.934C6.75719 150.804 6.59994 151.694 6.29039 152.525C5.6888 154.146 4.18619 154.885 2.32393 154.578C1.16325 154.385 0.594142 153.461 0.394382 151.668C0.224684 150.144 0.601626 148.867 1.80228 147.933C2.13176 147.676 2.59108 147.594 2.98796 147.433C3.06779 147.563 3.15017 147.694 3.23011 147.825C2.98542 148.126 2.66597 148.392 2.51367 148.736C2.09433 149.675 1.5751 150.621 1.42533 151.617C1.31301 152.35 1.56013 153.297 2.5836 153.469C3.627 153.646 4.64297 153.587 5.12475 152.412C5.58902 151.275 5.92599 150.085 6.35029 148.931C6.89947 147.441 9.40319 146.901 10.524 148.015C11.9942 149.475 12.129 152.14 10.7836 153.739C10.3093 154.302 9.75767 154.746 8.93143 154.218L8.9289 154.215Z" fill="white" />
    <path d="M8.11798 253.992C10.4718 251.62 12.002 249.033 9.0365 246.312C7.42652 244.834 5.25978 244.708 3.42505 245.911C-0.736001 248.638 1.94237 251.504 3.70464 254.295C1.58536 254.339 0.397255 252.199 0.397255 248.915C0.397255 246.804 2.83854 243.823 6.5254 244.065C9.73798 244.275 12.0394 247.225 11.6151 250.493C11.3231 252.736 9.94511 254.306 8.11798 253.992Z" fill="white" />
    <path d="M0.234785 426.706C0.77405 426.372 1.2783 425.879 1.85985 425.738C2.91327 425.484 3.19782 424.863 3.07306 423.875C3.04553 423.665 3.02064 423.447 3.03308 423.237C3.15543 421.315 3.22029 419.438 0.731547 418.998C0.571871 418.971 0.467032 418.635 0.182368 418.214C0.729121 418.214 1.08856 418.118 1.37311 418.23C4.24376 419.33 7.10186 420.461 9.96006 421.595C10.3045 421.73 10.649 421.908 10.9436 422.133C11.5101 422.567 11.61 423.073 10.8561 423.37C7.64607 424.645 4.42348 425.886 1.19835 427.119C0.968745 427.206 0.669216 427.103 0.402061 427.088L0.234785 426.706ZM9.20121 422.919C9.20617 422.768 9.21365 422.616 9.21861 422.465C8.00804 422.025 6.7923 421.597 5.58416 421.149C3.94919 420.541 3.85679 420.605 3.89677 422.428C3.94665 424.711 3.95172 424.727 6.00857 424.061C7.08192 423.711 8.13777 423.301 9.20121 422.921V422.919Z" fill="white" />
    <path d="M0.531721 362.062C0.786432 362.075 1.06349 362.025 1.29563 362.108C4.18621 363.152 7.07425 364.209 9.95734 365.276C10.3069 365.404 10.6937 365.527 10.9609 365.768C11.6673 366.405 11.3503 366.908 10.6338 367.2C8.36235 368.12 6.08327 369.021 3.79682 369.901C2.98302 370.214 2.14434 370.476 1.29806 370.686C1.04852 370.748 0.738968 370.551 0.456837 370.474C0.639088 370.232 0.806362 369.796 1.00855 369.775C3.14776 369.567 3.04293 368.052 3.04293 366.436C3.04293 364.904 3.10779 363.501 1.18573 363.138C0.891262 363.082 0.661548 362.662 0.401991 362.411C0.444388 362.293 0.486786 362.177 0.529293 362.059L0.531721 362.062ZM9.26347 366.682C9.26589 366.484 9.27095 366.284 9.27338 366.086C7.67838 365.591 6.07578 364.709 4.48574 364.734C3.31008 364.753 3.96651 366.426 3.86916 367.352C3.83668 367.651 4.43827 368.34 4.5931 368.293C6.16817 367.821 7.71076 367.236 9.26347 366.684V366.682Z" fill="white" />
    <path d="M9.20472 298.937C9.70401 297.824 10.2532 296.811 10.6126 295.731C10.977 294.635 10.3929 293.814 9.2023 293.479C8.11639 293.17 7.28024 293.606 6.92069 294.654C6.56379 295.692 6.2343 296.744 5.83236 297.766C5.4031 298.856 4.57675 299.371 3.42356 299.499C2.27037 299.626 1.52143 299.12 0.912353 298.209C-0.125982 296.655 0.138529 293.994 1.55139 292.85C1.97073 292.511 2.62727 292.478 3.17645 292.306C3.30375 292.516 3.43358 292.726 3.56088 292.937C3.32875 293.029 3.07415 293.081 2.87197 293.217C1.23942 294.318 0.867425 295.318 1.68871 297.096C1.95829 297.678 2.7146 298.353 3.26884 298.37C3.833 298.389 4.61178 297.776 4.95128 297.216C5.46797 296.365 5.76497 295.346 6.01957 294.358C6.5313 292.383 7.69958 292.07 9.47683 292.358C10.7898 292.57 11.9356 294.494 11.6785 295.941C11.5386 296.726 11.2416 297.501 10.9072 298.229C10.4928 299.13 9.77141 299.186 9.20725 298.941L9.20472 298.937Z" fill="white" />
    <path d="M10.6824 277.752C11.7733 279.004 11.701 284.748 10.7424 285.418C10.6675 284.754 10.5452 284.194 10.5551 283.637C10.5776 282.454 10.1409 281.975 8.91764 282.032C6.51138 282.142 4.10005 282.109 1.68872 282.111C1.26431 282.111 0.840016 281.995 0.415608 281.934C0.393143 281.777 0.368255 281.621 0.34579 281.464C0.745201 281.341 1.14208 281.121 1.54149 281.113C4.03266 281.061 6.52877 281.003 9.01752 281.065C10.0635 281.09 10.4428 280.718 10.4479 279.689C10.4503 279.043 10.5951 278.396 10.6775 277.75L10.6824 277.752Z" fill="white" />
    <path d="M11.6549 214.176C9.85016 215.27 8.04549 216.364 6.02355 217.59C8.06289 218.98 10.1947 219.524 11.7148 221.02C11.6549 221.156 11.5925 221.294 11.5326 221.431C11.1357 221.325 10.7114 221.284 10.352 221.105C9.23359 220.543 8.09791 219.997 7.04449 219.316C5.46193 218.293 3.7795 217.939 1.93727 218.06C1.38061 218.095 0.804013 217.852 0.237328 217.738C0.249882 217.626 0.26233 217.51 0.274774 217.398C2.2193 217.026 4.23375 216.866 6.09095 216.223C7.92315 215.586 9.59556 214.463 11.3355 213.555C11.4403 213.763 11.5451 213.97 11.65 214.178L11.6549 214.176Z" fill="white" />
    <path d="M11.4164 179.22C10.8323 179.357 10.353 179.563 9.86876 179.573C7.09546 179.622 4.32227 179.64 1.54897 179.62C1.26189 179.62 0.979866 179.299 0.695202 179.127C0.899918 178.971 1.10716 178.673 1.31177 178.676C4.57929 178.717 7.84683 178.794 11.1118 178.871C11.1642 178.871 11.2117 178.981 11.4189 179.22H11.4164Z" fill="white" />
    <path d="M11.4189 393.418C10.1859 394.526 0.907517 394.421 0.0662988 393.418H11.4189Z" fill="white" />
  </g>
  <defs>
    <clipPath id="clip0_13179_11615">
      <rect width="544" height="94.7045" fill="white" transform="matrix(0 1 -1 0 94.7046 0)" />
    </clipPath>
  </defs>
</svg>