<svg width="250" height="50" viewBox="0 0 250 50" fill="none" xmlns="http://www.w3.org/2000/svg">
<path d="M17.7129 49.9018C12.2284 49.9018 6.74645 49.907 1.26193 49.8993C-0.135784 49.8993 -0.213578 49.8033 0.266155 48.5097C1.01298 46.498 1.26711 44.4059 1.2723 42.2905C1.29564 30.7256 1.29304 19.1607 1.2723 7.59586C1.26971 5.43636 1.08819 3.27945 0.240224 1.25734C-0.192833 0.225555 0.144277 0.00519741 1.15561 0.00778985C11.9068 0.0311218 22.658 0.0363067 33.4093 1.25337e-05C34.5632 -0.0025799 34.9574 0.396655 34.8796 1.50622C34.8122 2.44987 34.8563 3.40388 34.8614 4.35272C34.8666 5.03193 34.5866 5.38969 33.9175 5.0449C31.0988 3.59572 28.0648 3.78497 25.0463 3.79534C20.4253 3.8109 15.8069 3.82645 11.1859 3.77979C10.0812 3.76942 9.66375 4.07533 9.67412 5.23674C9.72339 10.6316 9.71821 16.0239 9.67931 21.4187C9.67153 22.4816 10.0164 22.8368 11.0926 22.8316C17.4821 22.7901 23.8716 22.8109 30.2638 22.8135C31.9208 22.8135 31.9493 22.8264 31.5059 24.3482C30.6164 27.4099 31.1429 26.8473 28.1711 26.8654C22.5595 26.8991 16.9453 26.9043 11.3337 26.8525C10.1409 26.8421 9.65597 27.1169 9.67153 28.4183C9.73636 33.725 9.73376 39.0344 9.67153 44.3411C9.65856 45.6114 10.0994 45.9562 11.3182 45.9458C17.3187 45.8965 23.3219 45.8965 29.3225 45.9354C31.4488 45.9484 33.4093 45.3962 35.3256 44.564C35.6264 44.4344 35.9454 44.1363 36.2669 44.4474C36.5081 44.6807 36.3707 45.0177 36.3266 45.3132C36.1814 46.2932 35.9921 47.2679 35.9065 48.2531C35.8028 49.4326 35.3438 49.9511 34.0368 49.933C28.5964 49.8604 23.1559 49.9018 17.7155 49.9018H17.7129Z" fill="#1D1D1D"/>
<path d="M48.5257 16.9412C48.0511 20.4306 47.6103 23.6504 47.1798 26.8728C46.5341 31.6948 45.8962 36.5193 45.2557 41.3412C44.9315 43.7807 44.6904 46.2332 44.903 48.6882C44.9834 49.6111 44.7837 49.9611 43.8502 49.9377C42.4266 49.8989 41.0003 49.9196 39.5741 49.93C38.8273 49.9352 38.4927 49.6785 38.8428 48.9163C40.422 45.471 40.5206 41.7223 41.0392 38.067C42.0194 31.1607 42.9167 24.2441 43.8424 17.3301C44.5452 12.0804 45.2401 6.83069 45.9481 1.58359C46.0284 0.989925 45.8106 0.0929417 46.7701 0.100719C47.8411 0.108496 49.078 -0.454063 49.8248 1.02363C51.8267 4.99006 53.9246 8.90982 55.9836 12.8477C60.2026 20.9154 64.4243 28.9805 68.6459 37.0456C68.8819 37.4966 69.1516 37.9322 69.4135 38.3858C69.9736 38.1551 70.0696 37.6522 70.277 37.2555C76.5395 25.2914 82.789 13.3196 89.0541 1.35546C89.3393 0.808455 89.5053 0.149975 90.3351 0.0514627C91.821 -0.124823 92.2048 0.0903492 92.4304 1.67433C93.172 6.91883 93.8747 12.1685 94.5982 17.4156C95.5032 23.9848 96.4083 30.5515 97.3288 37.1181C97.6867 39.6769 98.0757 42.2304 98.4698 44.7814C98.6825 46.1528 99.1233 47.462 99.7042 48.7193C100.059 49.4918 99.9894 49.9403 98.9884 49.9352C96.0945 49.917 93.2031 49.9274 90.3092 49.9274C89.6453 49.9274 89.2148 49.7148 89.3315 48.9371C89.9695 44.6518 89.2434 40.4287 88.691 36.203C87.952 30.567 87.1637 24.9389 86.3961 19.3081C86.3727 19.1396 86.3805 18.9555 85.9967 18.8259C85.1773 20.3243 84.3293 21.8539 83.5047 23.3912C78.9926 31.7907 74.4546 40.1772 70.0125 48.6156C69.3409 49.8911 68.4385 49.93 67.2742 49.9637C66.1669 49.9948 65.5834 49.5826 65.0752 48.6026C59.7774 38.3729 54.4303 28.169 49.0961 17.96C48.9613 17.7008 48.8135 17.4519 48.5308 16.9464L48.5257 16.9412Z" fill="#1D1D1D"/>
<path d="M124.829 31.7969C122.584 31.7969 120.338 31.8488 118.095 31.7736C117.068 31.7399 116.547 32.1158 116.145 33.0413C113.902 38.1795 111.573 43.2788 109.348 48.4248C108.868 49.5344 108.269 50.0451 107.027 49.9492C105.653 49.8429 104.266 49.9258 102.886 49.9103C102.23 49.9025 101.981 49.6199 102.411 49.0314C106.662 43.2088 108.811 36.3518 111.804 29.9148C116.184 20.4913 120.33 10.9589 124.56 1.46539C124.956 0.57618 125.348 -0.0226735 126.517 0.000658415C127.643 0.0239904 127.977 0.653953 128.348 1.47057C134.39 14.832 140.432 28.1908 146.495 41.5419C147.716 44.2302 149.254 46.7164 151.451 48.7463C151.712 48.9874 152.169 49.2388 151.935 49.6899C151.754 50.0399 151.318 49.9206 150.986 49.9206C148.137 49.931 145.287 49.8947 142.439 49.944C141.47 49.9621 140.964 49.581 140.577 48.7177C138.319 43.634 135.98 38.5865 133.755 33.4872C133.221 32.2635 132.598 31.6699 131.175 31.7632C129.069 31.898 126.945 31.7969 124.832 31.7995L124.829 31.7969ZM124.772 13.7898C122.76 18.324 120.851 22.6508 118.917 26.9646C118.543 27.7994 119.015 27.8175 119.609 27.8175C123.058 27.8149 126.507 27.7994 129.956 27.8253C130.978 27.8331 130.993 27.4649 130.62 26.6639C129.326 23.8926 128.086 21.0979 126.826 18.3136C126.175 16.8748 125.522 15.436 124.775 13.7924L124.772 13.7898Z" fill="#1D1D1D"/>
<path d="M198.66 49.9148C197.322 49.9148 195.981 49.8578 194.646 49.933C193.627 49.99 193.087 49.6012 192.678 48.6757C190.354 43.4312 187.955 38.2204 185.635 32.9759C185.246 32.097 184.761 31.7548 183.793 31.7652C179.217 31.8093 174.642 31.8041 170.065 31.7678C169.15 31.76 168.691 32.0918 168.323 32.9318C166.041 38.1478 163.681 43.3301 161.404 48.546C160.961 49.5597 160.385 50.0082 159.257 49.9356C157.839 49.8448 156.41 49.9123 154.984 49.9071C154.302 49.9045 154.089 49.6297 154.527 49.0412C158.479 43.75 160.465 37.4763 163.183 31.5785C167.82 21.5121 172.264 11.3575 176.774 1.23145C177.124 0.443351 177.534 -0.00514041 178.49 4.44631e-05C179.442 0.00522934 179.95 0.311137 180.352 1.19775C186.293 14.3673 192.268 27.5214 198.24 40.6754C199.604 43.6774 201.183 46.5369 203.673 48.7923C203.911 49.0101 204.292 49.2434 204.121 49.64C203.95 50.0289 203.52 49.8993 203.195 49.9019C201.684 49.9174 200.174 49.9097 198.663 49.9097L198.66 49.9148ZM176.911 13.8151C174.855 18.4245 172.946 22.6942 171.046 26.964C170.758 27.6121 171.071 27.8065 171.689 27.8039C175.22 27.7962 178.75 27.791 182.282 27.8065C183.093 27.8091 183.127 27.4617 182.834 26.8447C182.357 25.8337 181.913 24.8071 181.449 23.7883C179.992 20.584 178.535 17.3797 176.911 13.8126V13.8151Z" fill="#1D1D1D"/>
<path d="M226.902 26.7267C227.89 27.634 228.66 28.3003 229.384 29.0106C236.004 35.515 242.619 42.0272 249.224 48.5498C249.538 48.8609 250.178 49.1331 249.953 49.6438C249.738 50.1312 249.097 49.8823 248.648 49.8849C246.143 49.9057 243.638 49.8797 241.133 49.9031C240.4 49.9108 239.826 49.6931 239.274 49.185C232.771 43.2301 226.645 36.915 220.974 30.1565C219.947 28.9328 218.858 27.7585 217.326 27.1207C216.527 26.7889 216.125 26.9107 216.13 27.8907C216.159 33.4152 216.125 38.9422 216.182 44.4667C216.198 45.89 216.613 47.2769 217.136 48.6094C217.463 49.4416 217.367 49.9108 216.314 49.9005C213.335 49.872 210.355 49.8823 207.373 49.9005C206.556 49.9057 206.261 49.6749 206.6 48.8272C207.529 46.507 207.708 44.0727 207.7 41.5917C207.671 30.2394 207.677 18.8871 207.697 7.53486C207.7 5.35721 207.472 3.22882 206.686 1.19117C206.364 0.356401 206.52 0.00642214 207.469 0.011607C213.213 0.0401238 218.959 -0.0739434 224.698 0.094565C227.927 0.190485 231.121 0.828225 234.135 2.13222C239.041 4.25283 241.616 8.0015 241.719 13.3082C241.818 18.3375 239.508 22.0629 235.081 24.4583C232.664 25.7675 230.024 26.3404 226.9 26.7319L226.902 26.7267ZM216.141 13.5389C216.141 16.5565 216.177 19.5767 216.12 22.5943C216.099 23.6728 216.55 24.0928 217.551 24.0928C219.105 24.0928 220.668 24.2094 222.206 24.0565C223.739 23.9035 225.305 23.958 226.801 23.4369C230.859 22.0292 232.755 18.9468 233.027 14.9103C233.3 10.8428 231.798 7.46486 228.08 5.37277C224.854 3.55806 221.309 3.24178 217.694 3.21586C216.548 3.20808 216.081 3.50621 216.115 4.74021C216.195 7.66967 216.141 10.6043 216.141 13.5364V13.5389Z" fill="#1D1D1D"/>
</svg>
