<svg width="436" height="136" viewBox="0 0 436 136" fill="none" xmlns="http://www.w3.org/2000/svg">
<path d="M30.8302 111.872C21.2841 111.872 11.7425 111.881 2.19645 111.868C-0.236338 111.868 -0.371744 111.701 0.463257 109.449C1.76315 105.948 2.20548 102.306 2.2145 98.6243C2.25512 78.4951 2.25061 58.3658 2.2145 38.2366C2.20999 34.4779 1.89404 30.7237 0.418122 27.2041C-0.335636 25.4082 0.251122 25.0247 2.01139 25.0292C20.7244 25.0698 39.4375 25.0788 58.1506 25.0156C60.1591 25.0111 60.8451 25.706 60.7097 27.6373C60.5924 29.2797 60.6691 30.9403 60.6781 32.5918C60.6872 33.774 60.1997 34.3967 59.0352 33.7965C54.129 31.2742 48.8482 31.6036 43.5944 31.6216C35.5514 31.6487 27.5128 31.6758 19.4697 31.5945C17.5469 31.5765 16.8203 32.1089 16.8383 34.1304C16.9241 43.5205 16.915 52.906 16.8473 62.296C16.8338 64.1461 17.4341 64.7642 19.3072 64.7552C30.4285 64.683 41.5498 64.7191 52.6757 64.7236C55.5598 64.7236 55.6094 64.7462 54.8376 67.3949C53.2895 72.7239 54.2057 71.7447 49.0332 71.7763C39.266 71.835 29.4942 71.844 19.727 71.7538C17.6507 71.7357 16.8067 72.214 16.8338 74.4792C16.9466 83.7158 16.9421 92.9569 16.8338 102.194C16.8112 104.405 17.5785 105.005 19.6999 104.987C30.1442 104.901 40.593 104.901 51.0372 104.969C54.7383 104.991 58.1506 104.03 61.486 102.582C62.0096 102.356 62.5648 101.837 63.1245 102.379C63.5442 102.785 63.305 103.371 63.2283 103.886C62.9755 105.591 62.646 107.288 62.4971 109.003C62.3165 111.056 61.5176 111.958 59.2428 111.927C49.7735 111.8 40.3041 111.872 30.8347 111.872H30.8302Z" fill="white"/>
<path d="M84.4615 54.5026C83.6355 60.5762 82.8682 66.1804 82.119 71.7892C80.9951 80.182 79.8848 88.5793 78.7699 96.9721C78.2058 101.218 77.786 105.487 78.1561 109.76C78.296 111.366 77.9485 111.975 76.3236 111.935C73.8457 111.867 71.3633 111.903 68.8808 111.921C67.5809 111.93 66.9987 111.484 67.608 110.157C70.3567 104.16 70.5283 97.6355 71.431 91.2732C73.1371 79.2525 74.6987 67.2137 76.3101 55.1795C77.5332 46.0421 78.7429 36.9048 79.9751 27.772C80.115 26.7386 79.7358 25.1774 81.4058 25.1909C83.2699 25.2045 85.4229 24.2253 86.7228 26.7973C90.2072 33.7011 93.8586 40.5236 97.4424 47.3778C104.786 61.42 112.134 75.4576 119.482 89.4953C119.893 90.2804 120.362 91.0385 120.818 91.8282C121.793 91.4266 121.96 90.5512 122.321 89.8608C133.221 69.0367 144.099 48.199 155.003 27.3749C155.5 26.4228 155.789 25.2767 157.233 25.1052C159.819 24.7984 160.487 25.1729 160.88 27.9299C162.171 37.0582 163.394 46.1956 164.653 55.3284C166.228 66.7625 167.804 78.1921 169.406 89.6217C170.029 94.0753 170.706 98.5199 171.392 102.96C171.762 105.347 172.529 107.626 173.54 109.814C174.159 111.159 174.037 111.939 172.295 111.93C167.257 111.899 162.225 111.917 157.188 111.917C156.032 111.917 155.283 111.547 155.486 110.193C156.597 102.734 155.333 95.3838 154.371 88.0288C153.085 78.2192 151.713 68.423 150.377 58.6223C150.336 58.3291 150.35 58.0087 149.682 57.7831C148.256 60.3912 146.78 63.0534 145.344 65.7292C137.491 80.3489 129.592 94.9461 121.861 109.634C120.692 111.854 119.121 111.921 117.094 111.98C115.167 112.034 114.151 111.317 113.267 109.611C104.046 91.8056 94.7388 74.0453 85.4545 56.276C85.2198 55.8247 84.9625 55.3916 84.4705 54.5117L84.4615 54.5026Z" fill="white"/>
<path d="M217.272 80.3598C213.363 80.3598 209.455 80.45 205.55 80.3192C203.763 80.2605 202.856 80.9148 202.156 82.5257C198.252 91.469 194.199 100.345 190.326 109.301C189.491 111.233 188.449 112.122 186.287 111.955C183.895 111.77 181.48 111.914 179.079 111.887C177.937 111.873 177.503 111.382 178.253 110.357C185.65 100.223 189.392 88.2878 194.601 77.0839C202.224 60.6818 209.441 44.0901 216.803 27.5662C217.493 26.0185 218.175 24.9762 220.21 25.0168C222.169 25.0574 222.751 26.1539 223.397 27.5752C233.913 50.8315 244.43 74.0832 254.982 97.3214C257.108 102.001 259.785 106.328 263.608 109.861C264.064 110.281 264.858 110.718 264.452 111.503C264.136 112.113 263.378 111.905 262.8 111.905C257.84 111.923 252.879 111.86 247.923 111.946C246.235 111.977 245.355 111.314 244.683 109.811C240.751 100.963 236.68 92.1774 232.808 83.3018C231.878 81.172 230.795 80.1387 228.317 80.3011C224.652 80.5358 220.955 80.3598 217.277 80.3643L217.272 80.3598ZM217.173 49.0175C213.67 56.9095 210.348 64.4405 206.981 71.9489C206.331 73.4019 207.153 73.4334 208.186 73.4334C214.189 73.4289 220.192 73.4019 226.195 73.447C227.974 73.4605 228.001 72.8198 227.351 71.4255C225.098 66.6019 222.941 61.7376 220.747 56.8915C219.615 54.3871 218.477 51.8828 217.177 49.0221L217.173 49.0175Z" fill="white"/>
<path d="M345.778 111.895C343.449 111.895 341.115 111.796 338.791 111.927C337.017 112.026 336.078 111.349 335.365 109.738C331.321 100.61 327.146 91.5401 323.106 82.4118C322.429 80.8821 321.585 80.2865 319.902 80.3046C311.935 80.3813 303.974 80.3722 296.007 80.3091C294.414 80.2955 293.615 80.8731 292.974 82.3351C289.002 91.4138 284.895 100.434 280.932 109.513C280.16 111.277 279.158 112.057 277.195 111.931C274.726 111.773 272.239 111.89 269.757 111.881C268.569 111.877 268.199 111.399 268.962 110.374C275.841 101.165 279.298 90.2451 284.028 79.9797C292.098 62.4585 299.835 44.784 307.684 27.159C308.293 25.7873 309.006 25.0067 310.672 25.0157C312.328 25.0247 313.213 25.5572 313.912 27.1004C324.253 50.0227 334.652 72.918 345.047 95.8132C347.421 101.038 350.169 106.015 354.502 109.941C354.918 110.32 355.581 110.726 355.283 111.417C354.985 112.094 354.236 111.868 353.672 111.872C351.041 111.899 348.414 111.886 345.782 111.886L345.778 111.895ZM307.923 49.0616C304.344 57.0844 301.022 64.5161 297.713 71.9478C297.212 73.0759 297.758 73.4143 298.833 73.4098C304.98 73.3963 311.123 73.3873 317.27 73.4143C318.683 73.4188 318.742 72.8142 318.232 71.7403C317.401 69.9805 316.629 68.1936 315.822 66.4203C313.285 60.8431 310.748 55.266 307.923 49.0571V49.0616Z" fill="white"/>
<path d="M394.935 71.5348C396.655 73.1141 397.995 74.2737 399.254 75.5101C410.778 86.8314 422.291 98.1662 433.787 109.519C434.334 110.061 435.448 110.534 435.056 111.423C434.681 112.272 433.566 111.838 432.785 111.843C428.425 111.879 424.065 111.834 419.705 111.874C418.428 111.888 417.43 111.509 416.469 110.625C405.149 100.26 394.488 89.268 384.617 77.5045C382.83 75.3747 380.934 73.3307 378.267 72.2206C376.876 71.6431 376.177 71.8552 376.186 73.5608C376.236 83.1764 376.177 92.7966 376.276 102.412C376.303 104.889 377.025 107.304 377.937 109.623C378.506 111.071 378.339 111.888 376.506 111.87C371.32 111.82 366.134 111.838 360.944 111.87C359.522 111.879 359.007 111.477 359.599 110.002C361.215 105.963 361.526 101.726 361.512 97.4081C361.463 77.6489 361.472 57.8897 361.508 38.1304C361.512 34.3401 361.115 30.6356 359.748 27.0889C359.188 25.636 359.459 25.0268 361.111 25.0358C371.108 25.0855 381.11 24.8869 391.099 25.1802C396.718 25.3472 402.279 26.4572 407.523 28.7269C416.063 32.4179 420.545 38.9426 420.725 48.1793C420.897 56.9331 416.875 63.4172 409.171 67.5865C404.964 69.8652 400.369 70.8625 394.931 71.5438L394.935 71.5348ZM376.204 48.5809C376.204 53.8331 376.267 59.0899 376.168 64.3422C376.132 66.2193 376.917 66.9503 378.659 66.9503C381.363 66.9503 384.085 67.1534 386.761 66.8871C389.429 66.6209 392.155 66.7157 394.759 65.8087C401.823 63.3585 405.122 57.9935 405.596 50.9678C406.07 43.8881 403.457 38.0086 396.984 34.3672C391.369 31.2086 385.199 30.6581 378.908 30.613C376.913 30.5995 376.1 31.1184 376.159 33.2662C376.299 38.3651 376.204 43.473 376.204 48.5763V48.5809Z" fill="white"/>
<rect y="0.015625" width="435" height="135" fill="url(#paint0_linear_12910_10924)"/>
<defs>
<linearGradient id="paint0_linear_12910_10924" x1="633.5" y1="68.0158" x2="367.5" y2="68.0156" gradientUnits="userSpaceOnUse">
<stop stop-color="#1D1D1D"/>
<stop offset="1" stop-color="#1D1D1D" stop-opacity="0"/>
</linearGradient>
</defs>
</svg>
