<svg width="24" height="25" viewBox="0 0 24 25" fill="none" xmlns="http://www.w3.org/2000/svg">
<path d="M23.2333 11.1522H22.1983L19.5361 5.37772C19.4156 5.11646 19.2191 4.89449 18.9704 4.73871C18.7218 4.58292 18.4316 4.5 18.135 4.5H6.865C6.56843 4.5 6.27823 4.58292 6.02956 4.73871C5.78088 4.89449 5.5844 5.11646 5.46392 5.37772L2.80167 11.1522H1.76667C1.56333 11.1522 1.36833 11.23 1.22455 11.3687C1.08077 11.5073 1 11.6953 1 11.8913C1 12.0873 1.08077 12.2753 1.22455 12.4139C1.36833 12.5526 1.56333 12.6304 1.76667 12.6304H2.53333V20.0217C2.53333 20.4138 2.69488 20.7898 2.98244 21.067C3.26999 21.3443 3.66 21.5 4.06667 21.5H6.36667C6.77333 21.5 7.16334 21.3443 7.4509 21.067C7.73845 20.7898 7.9 20.4138 7.9 20.0217V18.5435H17.1V20.0217C17.1 20.4138 17.2615 20.7898 17.5491 21.067C17.8367 21.3443 18.2267 21.5 18.6333 21.5H20.9333C21.34 21.5 21.73 21.3443 22.0176 21.067C22.3051 20.7898 22.4667 20.4138 22.4667 20.0217V12.6304H23.2333C23.4367 12.6304 23.6317 12.5526 23.7754 12.4139C23.9192 12.2753 24 12.0873 24 11.8913C24 11.6953 23.9192 11.5073 23.7754 11.3687C23.6317 11.23 23.4367 11.1522 23.2333 11.1522ZM7.9 15.587H6.36667C6.16333 15.587 5.96833 15.5091 5.82455 15.3705C5.68077 15.2319 5.6 15.0439 5.6 14.8478C5.6 14.6518 5.68077 14.4638 5.82455 14.3252C5.96833 14.1866 6.16333 14.1087 6.36667 14.1087H7.9C8.10333 14.1087 8.29834 14.1866 8.44211 14.3252C8.58589 14.4638 8.66667 14.6518 8.66667 14.8478C8.66667 15.0439 8.58589 15.2319 8.44211 15.3705C8.29834 15.5091 8.10333 15.587 7.9 15.587ZM17.1 15.587C16.8967 15.587 16.7017 15.5091 16.5579 15.3705C16.4141 15.2319 16.3333 15.0439 16.3333 14.8478C16.3333 14.6518 16.4141 14.4638 16.5579 14.3252C16.7017 14.1866 16.8967 14.1087 17.1 14.1087H18.6333C18.8367 14.1087 19.0317 14.1866 19.1754 14.3252C19.3192 14.4638 19.4 14.6518 19.4 14.8478C19.4 15.0439 19.3192 15.2319 19.1754 15.3705C19.0317 15.5091 18.8367 15.587 18.6333 15.587H17.1Z" fill="white"/>
</svg>
