<svg width="20" height="25" viewBox="0 0 20 25" fill="none" xmlns="http://www.w3.org/2000/svg">
<path d="M6.95426 3.01516C6.95426 2.41882 7.13276 1.83587 7.46719 1.34003C7.80163 0.844186 8.27697 0.457726 8.8331 0.229516C9.38924 0.00130643 10.0012 -0.0584037 10.5916 0.0579367C11.182 0.174277 11.7243 0.461443 12.15 0.88312C12.5756 1.3048 12.8655 1.84205 12.9829 2.42693C13.1003 3.01181 13.0401 3.61806 12.8097 4.16901C12.5794 4.71995 12.1893 5.19086 11.6887 5.52217C11.1882 5.85348 10.5998 6.03031 9.99783 6.03031C9.19062 6.03031 8.41648 5.71264 7.8457 5.14719C7.27492 4.58174 6.95426 3.81483 6.95426 3.01516ZM19.5003 14.2983L14.5817 8.77411C14.296 8.45327 13.9448 8.19631 13.5512 8.0203C13.1577 7.84429 12.7308 7.75326 12.299 7.75326H7.69667C7.26486 7.75326 6.838 7.84429 6.44443 8.0203C6.05087 8.19631 5.69961 8.45327 5.414 8.77411L0.495384 14.2983C0.176 14.622 -0.00194547 15.0573 1.60459e-05 15.51C0.00197756 15.9626 0.183689 16.3964 0.505866 16.7174C0.828043 17.0384 1.2648 17.2209 1.72172 17.2254C2.17864 17.23 2.61901 17.0562 2.94763 16.7417L6.5 13L3.61721 22.5684C3.43091 22.9828 3.41704 23.4532 3.57862 23.8776C3.7402 24.302 4.06419 24.6461 4.48029 24.8353C4.89639 25.0246 5.37103 25.0436 5.80122 24.8884C6.23141 24.7331 6.58245 24.4161 6.77817 24.006L9.99783 16L13.2131 24.0136C13.4089 24.4236 13.7599 24.7407 14.1901 24.8959C14.6203 25.0512 15.0949 25.0321 15.511 24.8429C15.9271 24.6536 16.2511 24.3095 16.4127 23.8851C16.5743 23.4607 16.5604 22.9903 16.3741 22.576L13.5 13L17.0524 16.7417C17.381 17.0562 17.8214 17.23 18.2783 17.2254C18.7352 17.2209 19.172 17.0384 19.4941 16.7174C19.8163 16.3964 19.998 15.9626 20 15.51C20.0019 15.0573 19.824 14.622 19.5046 14.2983H19.5003Z" fill="white"/>
</svg>
